<?xml version="1.0" encoding="UTF-8"?>
<svg width="512" height="512" version="1.1" viewBox="0 0 512 512" xmlns="http://www.w3.org/2000/svg">
 <g fill="currentColor">
  <path d="m376 144h-240c-8.832 0-16-7.168-16-16s7.168-16 16-16h240c8.832 0 16 7.168 16 16s-7.168 16-16 16z"/>
  <path d="m376 400h-240c-8.832 0-16-7.168-16-16s7.168-16 16-16h240c8.832 0 16 7.168 16 16s-7.168 16-16 16z"/>
  <path d="m376 272h-240c-8.832 0-16-7.168-16-16s7.168-16 16-16h240c8.832 0 16 7.168 16 16s-7.168 16-16 16z"/>
 </g>
</svg>
