<?xml version="1.0" encoding="UTF-8"?>
<svg width="512" height="512" version="1.1" viewBox="0 0 512 512" xmlns="http://www.w3.org/2000/svg">
 <g fill="currentColor">
  <path d="m480 224h-448c-17.673 0-32 14.327-32 32v192c0 17.673 14.327 32 32 32h448c17.673 0 32-14.327 32-32v-192c0-17.673-14.327-32-32-32zm-416 32h384v160h-384v-160z"/>
  <path d="m480 32h-448c-17.673 0-32 14.327-32 32v96c0 17.673 14.327 32 32 32h448c17.673 0 32-14.327 32-32v-96c0-17.673-14.327-32-32-32zm-416 96v-32h384v32h-384z"/>
 </g>
</svg>
