
<svg id="Layer_1" data-name="Layer 1" xmlns="http://www.w3.org/2000/svg" viewBox="0 0 375 375 " fill="currentColor">
  <path d="M322.44,134.82v-15.81l-42.94-22.6-42.95,22.6v71.16H37.49v2.25h199.99s1.45,0,1.45,0v-71.97s40.57-21.35,40.57-21.35l40.54,21.35v13.11l-25.7-13.55-42.97,22.62v50h71.06v-55.11l12.43,6.54v62.37h-83.49v2.39h85.9v-66.2l-14.83-7.81ZM320.05,190.24h-66.28v-46.17l40.57-21.35,25.71,13.54v53.98Z"/>
  <rect x="38.64" y="200.39" width=".66" height="7.84"/>
  <polygon points="52.93 207.3 50.03 200.39 49.75 200.39 49.16 200.39 49.16 208.23 49.82 208.23 49.82 204.8 49.76 201.33 52.67 208.23 53.18 208.23 56.11 201.31 56.05 204.8 56.05 208.23 56.71 208.23 56.71 200.39 55.83 200.39 52.93 207.3"/>
  <polygon points="70.2 207.3 67.3 200.39 67.01 200.39 66.43 200.39 66.43 208.23 67.09 208.23 67.09 204.8 67.03 201.33 69.94 208.23 70.45 208.23 73.37 201.31 73.32 204.8 73.32 208.23 73.98 208.23 73.98 200.39 73.09 200.39 70.2 207.3"/>
  <path d="M88.03,200.72c-.46-.3-1-.44-1.61-.44s-1.14.15-1.6.44-.82.72-1.07,1.26c-.25.55-.38,1.18-.38,1.9v.84c0,.72.13,1.36.38,1.9.26.55.61.97,1.08,1.26.46.3,1,.44,1.6.44s1.15-.15,1.61-.44c.46-.3.81-.72,1.06-1.26.25-.54.37-1.18.37-1.9v-.84c0-.73-.13-1.36-.38-1.9-.25-.54-.61-.96-1.07-1.26ZM88.82,204.73c0,.62-.09,1.16-.28,1.61-.19.45-.46.8-.82,1.05-.36.25-.79.37-1.29.37s-.91-.12-1.27-.37c-.36-.25-.64-.6-.83-1.05s-.29-.99-.29-1.61v-.85c0-.61.1-1.15.29-1.6.19-.45.47-.8.83-1.05.36-.24.78-.37,1.27-.37s.93.12,1.29.37.64.59.83,1.04.29.99.29,1.61v.85Z"/>
  <path d="M103.32,204.51c-.23-.18-.5-.3-.8-.37.39-.13.69-.34.91-.65.22-.3.33-.65.33-1.06,0-.69-.22-1.21-.67-1.54-.44-.34-1.07-.5-1.89-.5h-2.32v7.84h2.65c.5,0,.94-.08,1.32-.26s.67-.42.88-.75c.21-.33.31-.73.31-1.2,0-.3-.06-.58-.19-.85-.13-.26-.3-.49-.53-.67ZM99.54,200.95h1.65c.63,0,1.1.12,1.42.36.31.24.47.61.47,1.11s-.16.85-.47,1.1c-.32.25-.77.38-1.35.38h-1.72v-2.95ZM103.15,206.91c-.15.25-.36.43-.64.57s-.6.2-.99.2h-1.99v-3.22h2.04c.4,0,.73.07,1,.21.27.14.47.32.6.56.13.24.2.51.2.81,0,.34-.07.63-.22.88Z"/>
  <rect x="113.51" y="200.39" width=".66" height="7.84"/>
  <polygon points="128.56 207.67 124.69 207.67 124.69 200.39 124.03 200.39 124.03 208.23 124.5 208.23 128.56 208.23 128.56 207.67"/>
  <rect x="137.71" y="200.39" width=".66" height="7.84"/>
  <polygon points="153.1 207.67 148.89 207.67 148.89 204.47 152.55 204.47 152.55 203.9 148.89 203.9 148.89 200.95 153.08 200.95 153.08 200.39 148.89 200.39 148.23 200.39 148.23 208.23 148.69 208.23 153.1 208.23 153.1 207.67"/>
  <polygon points="168.06 200.39 167.4 200.39 167.4 207.1 162.89 200.39 162.23 200.39 162.23 208.23 162.89 208.23 162.89 201.52 167.4 208.23 168.06 208.23 168.06 200.39"/>
  <path d="M41.82,175.37h2.96l3.08,5.95h2.97v-.14l-3.47-6.47c.9-.38,1.6-.93,2.09-1.64s.74-1.58.74-2.6c0-1.52-.49-2.67-1.47-3.48-.98-.8-2.36-1.21-4.16-1.21h-5.51v15.54h2.76v-5.95ZM41.82,168.02h2.74c.97,0,1.69.23,2.16.68.47.46.7,1.09.7,1.91,0,.77-.24,1.38-.73,1.85-.49.46-1.19.69-2.12.69h-2.75v-5.13Z"/>
  <path d="M61.88,180.93c.88.41,1.88.61,3.01.61s2.09-.2,2.98-.61c.88-.41,1.58-1.02,2.09-1.83.51-.81.76-1.79.76-2.94v-10.36h-2.76v10.36c0,1.07-.27,1.87-.79,2.39s-1.29.78-2.27.78-1.72-.26-2.26-.78-.81-1.32-.81-2.38v-10.36h-2.75v10.36c0,1.16.25,2.14.74,2.95.49.81,1.18,1.42,2.06,1.82Z"/>
  <polygon points="82.88 176.31 82.6 169.42 87.13 181.33 89.1 181.33 93.62 169.41 93.36 176.31 93.36 181.33 96.11 181.33 96.11 165.79 92.53 165.79 88.12 177.61 83.7 165.79 82.46 165.79 80.12 165.79 80.12 181.33 82.88 181.33 82.88 176.31"/>
  <path d="M108.56,175.59h3.2c1.2,0,2.22-.19,3.07-.58.85-.38,1.5-.94,1.94-1.66.44-.73.67-1.59.67-2.59s-.22-1.82-.67-2.57-1.1-1.34-1.96-1.76c-.86-.42-1.87-.63-3.05-.63h-5.96v15.54h2.76v-5.74ZM108.56,168.02h3.2c.65,0,1.2.13,1.63.38.43.25.75.59.96,1,.21.42.31.87.31,1.37,0,.8-.24,1.44-.71,1.9-.47.46-1.2.69-2.19.69h-3.2v-5.35Z"/>
  <polygon points="129.1 176.52 130.85 174.67 135.43 181.33 138.71 181.33 132.68 172.66 138.42 165.79 135.06 165.79 130.6 171.19 129.1 173.05 129.1 165.79 126.34 165.79 126.34 181.33 129.1 181.33 129.1 176.52"/>
  <polygon points="156.88 181.33 156.88 179.11 149.45 179.11 149.45 174.41 155.8 174.41 155.8 172.24 149.45 172.24 149.45 168.02 156.81 168.02 156.81 165.79 149.45 165.79 146.69 165.79 146.69 181.33 148.71 181.33 156.88 181.33"/>
  <polygon points="118.01 253.51 115 245.96 114.46 245.96 113.41 245.96 113.41 255.2 114.63 255.2 114.63 251.59 114.52 247.74 117.54 255.2 118.47 255.2 121.5 247.74 121.39 251.59 121.39 255.2 122.61 255.2 122.61 245.96 121.02 245.96 118.01 253.51"/>
  <polygon points="125.99 250.92 129.98 250.92 129.98 249.93 125.99 249.93 125.99 246.96 130.57 246.96 130.57 245.96 125.99 245.96 124.76 245.96 124.76 255.2 125.75 255.2 130.63 255.2 130.63 254.21 125.99 254.21 125.99 250.92"/>
  <polygon points="138.02 249.93 133.38 249.93 133.38 245.96 132.15 245.96 132.15 255.2 133.38 255.2 133.38 250.92 138.02 250.92 138.02 255.2 139.26 255.2 139.26 245.96 138.02 245.96 138.02 249.93"/>
  <path d="M147.25,250.23c.31-.43.47-.93.47-1.5,0-.9-.28-1.58-.84-2.06-.56-.48-1.36-.71-2.41-.71h-3.06v9.24h1.23v-3.74h2.15l2.01,3.74h1.32v-.08l-2.17-3.92c.55-.22.99-.54,1.3-.97ZM144.51,250.46h-1.86v-3.51h1.83c.68,0,1.18.16,1.51.47s.5.75.5,1.31c0,.33-.08.62-.23.88-.15.26-.37.47-.67.62-.3.15-.66.23-1.08.23Z"/>
  <path d="M156.09,245.96h-.81l-3.53,9.24h1.27l.88-2.42h3.85l.88,2.42h1.26l-3.54-9.24h-.27ZM154.26,251.79l1.56-4.32,1.57,4.32h-3.13Z"/>
  <polygon points="162.37 245.96 161.14 245.96 161.14 255.2 162.12 255.2 166.75 255.2 166.75 254.21 162.37 254.21 162.37 245.96"/>
  <path d="M172.99,250.7c-.44-.26-1.02-.49-1.73-.68-.51-.14-.92-.3-1.24-.46-.31-.16-.54-.34-.69-.54-.15-.2-.22-.43-.22-.69,0-.45.16-.81.48-1.08.32-.28.79-.41,1.42-.41.67,0,1.17.16,1.52.49s.51.76.51,1.3h1.24c0-.49-.13-.95-.39-1.38-.26-.43-.64-.77-1.13-1.03-.49-.26-1.08-.39-1.75-.39-.62,0-1.16.11-1.64.33-.48.22-.84.52-1.1.9s-.39.81-.39,1.29c0,.68.25,1.23.76,1.66.51.42,1.25.78,2.23,1.06.59.17,1.04.34,1.35.5.31.16.53.35.66.55.12.2.19.45.19.75,0,.46-.17.82-.52,1.08-.35.26-.84.39-1.47.39-.41,0-.79-.07-1.13-.2-.34-.13-.61-.33-.82-.6-.21-.27-.31-.61-.31-1.01h-1.23c0,.59.17,1.09.5,1.52.33.42.77.74,1.3.96.54.22,1.1.33,1.68.33.65,0,1.21-.1,1.7-.3.49-.2.86-.49,1.13-.87.26-.37.4-.81.4-1.3s-.11-.89-.32-1.24c-.21-.35-.54-.65-.98-.91Z"/>
  <polygon points="184.96 253.12 180.31 245.96 179.07 245.96 179.07 255.2 180.31 255.2 180.31 248.05 184.94 255.2 186.18 255.2 186.18 245.96 184.96 245.96 184.96 253.12"/>
  <path d="M193.62,252.21c0,.7-.19,1.23-.57,1.59-.38.36-.89.54-1.55.54s-1.17-.18-1.55-.54-.57-.89-.57-1.59v-6.25h-1.22v6.25c0,.67.14,1.24.43,1.71.29.47.69.82,1.19,1.05.5.24,1.07.35,1.72.35s1.17-.12,1.69-.35c.51-.23.92-.59,1.22-1.06.3-.47.45-1.04.45-1.71v-6.25h-1.24v6.25Z"/>
  <path d="M202.61,250.23c.31-.43.47-.93.47-1.5,0-.9-.28-1.58-.84-2.06s-1.36-.71-2.41-.71h-3.06v9.24h1.23v-3.74h2.15l2.01,3.74h1.32v-.08l-2.17-3.92c.55-.22.99-.54,1.3-.97ZM199.86,250.46h-1.86v-3.51h1.83c.68,0,1.18.16,1.51.47s.5.75.5,1.31c0,.33-.08.62-.22.88-.15.26-.37.47-.67.62s-.66.23-1.08.23Z"/>
  <path d="M212.66,245.96h-1.26l-4.13,6.4v.69h4.21v2.15h1.19v-2.15h1.28v-.95h-1.28v-6.14ZM211.47,252.1h-2.87l2.73-4.29.14-.25v4.54Z"/>
  <polygon points="226.05 252.29 225.85 253.52 225.6 252.41 223.82 245.96 223.69 245.96 222.78 245.96 220.96 252.41 220.7 253.5 220.52 252.29 219.07 245.96 217.84 245.96 220.07 255.2 220.3 255.2 221.2 255.2 223.17 248.45 223.31 247.76 223.45 248.45 225.35 255.2 225.59 255.2 226.47 255.2 228.71 245.96 227.47 245.96 226.05 252.29"/>
  <path d="M235.15,245c.12-.12.19-.28.19-.47s-.06-.36-.19-.48c-.12-.13-.3-.19-.52-.19s-.39.06-.51.19c-.12.13-.18.29-.18.48s.06.35.18.47c.12.12.29.19.51.19s.39-.06.52-.19Z"/>
  <path d="M233.5,245.96h-.81l-3.53,9.24h1.27l.88-2.42h3.85l.88,2.42h1.26l-3.54-9.24h-.27ZM231.67,251.79l1.56-4.32,1.57,4.32h-3.13Z"/>
  <path d="M232.42,244.99c.12-.12.18-.28.18-.47s-.06-.36-.18-.48c-.12-.13-.29-.19-.51-.19s-.39.06-.51.19-.18.29-.18.48.06.35.18.47.29.19.51.19.39-.06.51-.19Z"/>
  <polygon points="244.44 253.12 239.78 245.96 238.55 245.96 238.55 255.2 239.78 255.2 239.78 248.05 244.42 255.2 245.66 255.2 245.66 245.96 244.44 245.96 244.44 253.12"/>
  <path d="M252.56,246.49c-.62-.35-1.33-.53-2.14-.53h-2.61v9.24h2.5c.85,0,1.59-.18,2.22-.53.63-.35,1.12-.85,1.46-1.51.34-.65.51-1.42.51-2.31v-.56c0-.88-.17-1.64-.51-2.3-.34-.66-.82-1.16-1.43-1.51ZM253.29,250.86c0,.69-.11,1.28-.34,1.78-.22.5-.56.89-1,1.16s-.99.41-1.63.41h-1.27v-7.25h1.38c.61,0,1.12.13,1.55.39s.76.64.98,1.14.33,1.1.33,1.8v.57Z"/>
  <polygon points="257.58 250.92 261.57 250.92 261.57 249.93 257.58 249.93 257.58 246.96 262.15 246.96 262.15 245.96 257.58 245.96 256.35 245.96 256.35 255.2 257.34 255.2 262.22 255.2 262.22 254.21 257.58 254.21 257.58 250.92"/>
</svg>
